<?xml version="1.0" encoding="UTF-8"?>
<svg version="1.1" xmlns="http://www.w3.org/2000/svg" width="256" height="256">
<path d="M0 0 C0.70520782 0.00054382 1.41041565 0.00108765 2.13699341 0.00164795 C13.66606352 0.04244149 24.43466588 1.000724 35.5 4.375 C36.20543945 4.57867188 36.91087891 4.78234375 37.63769531 4.9921875 C58.62235486 11.16470651 76.87018694 23.12525007 92.16674805 38.6237793 C107.43111227 54.70592295 117.41373696 74.01300707 123.02294922 95.36572266 C128.05987495 115.63298111 127.88395866 136.79109563 122.83203125 157.05419922 C116.51018272 179.8371044 105.17768425 198.80800781 88.6875 215.625 C82.13048882 222.11489277 75.49232789 227.70128577 67.5 232.375 C66.80567871 232.78443848 66.11135742 233.19387695 65.39599609 233.61572266 C46.24645178 244.71972685 26.32743385 250.58436878 4.1796875 251.62109375 C-18.1663311 251.99279856 -39.90260619 246.91659897 -59.64990234 236.40283203 C-79.36818598 225.44823001 -95.64478172 209.55355651 -107.64501953 190.56298828 C-117.12335778 174.92609224 -123.75933944 156.14089124 -124.67578125 137.87060547 C-125.56463003 112.2749351 -122.25257421 90.52368051 -111.25 67.25 C-101.73640517 48.90978765 -87.41217494 32.85665578 -70.34765625 21.2265625 C-67.11182841 19.17916598 -63.83672292 17.25313194 -60.5 15.375 C-59.43394531 14.76785156 -58.36789063 14.16070312 -57.26953125 13.53515625 C-39.48937014 4.0093255 -20.0515738 -0.05826123 0 0 Z " fill="#1C75BC" transform="translate(127.5,2.625)"/>
<path d="M0 0 C0.99 0.495 0.99 0.495 2 1 C-0.1577782 6.73852364 -2.94489292 12.19660802 -5.63476562 17.69921875 C-8.19511352 23.02440156 -10.27633665 28.34780999 -12 34 C-15.74105732 33.56784338 -19.37480375 33.03577036 -23 32 C-25.5625 29.4375 -25.5625 29.4375 -27 27 C-29.06814404 25.81186321 -29.06814404 25.81186321 -31.9375 25.75 C-32.948125 25.8325 -33.95875 25.915 -35 26 C-35.45093018 26.49701416 -35.90186035 26.99402832 -36.36645508 27.50610352 C-36.9055249 27.99908936 -37.44459473 28.4920752 -38 29 C-40.3815918 29.27709961 -40.3815918 29.27709961 -43.19921875 29.15234375 C-44.23626953 29.12156738 -45.27332031 29.09079102 -46.34179688 29.05908203 C-47.44587891 29.01895996 -48.54996094 28.97883789 -49.6875 28.9375 C-61.15765166 28.73888976 -71.30143332 29.26377254 -81.79296875 34.35546875 C-86.83457208 37.42319802 -89.96379039 40.97127783 -93 46 C-94.60649513 50.81948539 -94.44955276 55.43878659 -93.57421875 60.42578125 C-91.98398254 66.54282483 -89.13427271 71.29978349 -85.5234375 76.45703125 C-83.91751607 79.13768472 -83.33700096 80.91082453 -83 84 C-83.00537229 86.1462311 -83.04920851 88.29260083 -83.125 90.4375 C-83.13759828 94.16658948 -83.04358395 96.8589931 -81.9375 100.4375 C-78.64748462 104.78881067 -75.06171688 108.01396149 -70.125 110.375 C-66.02411754 111.19517649 -62.16189145 111.53146456 -58 111 C-56.9275 110.46375 -55.855 109.9275 -54.75 109.375 C-53.8425 108.92125 -52.935 108.4675 -52 108 C-48.37388449 109.15238964 -45.08195781 110.93662351 -41.7265625 112.71484375 C-40.7365625 113.23626953 -39.7465625 113.75769531 -38.7265625 114.29492188 C-36.66657102 115.38588713 -34.60667446 116.47703162 -32.546875 117.56835938 C-31.55429688 118.09107422 -30.56171875 118.61378906 -29.5390625 119.15234375 C-28.58362549 119.65991211 -27.62818848 120.16748047 -26.64379883 120.69042969 C-24.41054572 121.79664168 -22.28371201 122.61128979 -19.92578125 123.38671875 C-18.96027344 123.91910156 -17.99476563 124.45148438 -17 125 C-15.77585525 127.84099758 -15.109969 129.91065566 -14.5625 132.875 C-14.40330078 133.58269531 -14.24410156 134.29039062 -14.08007812 135.01953125 C-13.2847993 138.71706137 -12.81470853 142.22005401 -13 146 C-20.37500302 148.92979572 -26.78606093 149.51036398 -34.6875 149.4375 C-35.84217773 149.42920166 -36.99685547 149.42090332 -38.18652344 149.41235352 C-52.33410643 149.1323119 -63.77919768 145.07756895 -76 138 C-79.23054679 135.88291833 -82.12751503 133.57894636 -85 131 C-85.80953125 130.28328125 -86.6190625 129.5665625 -87.453125 128.828125 C-97.93769227 118.98678272 -105.0747386 106.80638767 -109.96484375 93.34375 C-113.61317826 80.83517452 -113.68716601 65.45886696 -111.34375 52.69921875 C-107.56571188 38.31987538 -99.95312766 26.25730349 -89.890625 15.51025391 C-81.51410636 6.81799664 -71.47275075 -0.00779281 -60 -4 C-38.6325642 -10.30793982 -20.42912936 -8.47656412 0 0 Z " fill="#FBFCFD" transform="translate(162,57)"/>
<path d="M0 0 C5.50347582 0.64118165 10.27393454 2.44862271 15.375 4.5 C16.68815186 5.0264209 16.68815186 5.0264209 18.02783203 5.56347656 C26.4305052 9.02456676 34.26436363 13.24785387 42 18 C43.12535156 18.58265625 44.25070313 19.1653125 45.41015625 19.765625 C46.26480469 20.50296875 47.11945313 21.2403125 48 22 C48.55874601 24.97997871 48.72043061 27.04718595 48.5625 30 C48.53953857 30.75893555 48.51657715 31.51787109 48.49291992 32.29980469 C47.86842807 46.3993104 42.67761921 60.25055709 35.65234375 72.40625 C33.93345205 75.10446298 32.19762562 77.71064104 30.25 80.25 C29.67765625 80.99765625 29.1053125 81.7453125 28.515625 82.515625 C26 84 26 84 23.87719727 84.12890625 C17.38164372 83.66899883 11.5071765 81.75070655 5.4375 79.5 C4.53708984 79.17902344 3.63667969 78.85804688 2.70898438 78.52734375 C-3.83254317 76.16745683 -3.83254317 76.16745683 -5 75 C-5.29076967 70.33369886 -5.31397479 65.66472909 -5.35009766 60.99023438 C-5.3666631 59.41684178 -5.39396155 57.84352463 -5.43212891 56.27050781 C-5.48682869 54.0054613 -5.50875774 51.74218 -5.5234375 49.4765625 C-5.54610687 48.77334869 -5.56877625 48.07013489 -5.59213257 47.34561157 C-5.58349609 45.35400391 -5.58349609 45.35400391 -5 42 C-2.61181641 40.23193359 -2.61181641 40.23193359 0 39 C2.21542014 35.94631278 3.68197985 33.6639842 4.38671875 29.9765625 C4.57957151 27.61465499 4.57957151 27.61465499 4 24 C2.25364203 20.85655565 0.53137274 18.53137274 -2 16 C-2.57341521 11.31148743 -2.2527003 6.9160386 -1 2.375 C-0.67 1.59125 -0.34 0.8075 0 0 Z " fill="#FCFDFE" transform="translate(159,98)"/>
<path d="M0 0 C0.87011719 0.00902344 1.74023438 0.01804687 2.63671875 0.02734375 C4.7579342 0.05065381 6.87900562 0.08651421 9 0.125 C9.680625 1.5790625 9.680625 1.5790625 10.375 3.0625 C10.91125 4.073125 11.4475 5.08375 12 6.125 C14.40545638 7.32772819 15.94996953 7.22571472 18.625 7.1875 C19.44226563 7.17847656 20.25953125 7.16945313 21.1015625 7.16015625 C21.72804687 7.14855469 22.35453125 7.13695313 23 7.125 C23.66 5.805 24.32 4.485 25 3.125 C31.625 3 31.625 3 35 4.125 C34.03630035 16.50093237 34.03630035 16.50093237 32 22.125 C29.0625 24.375 29.0625 24.375 26 26.125 C24.22047219 27.79698716 24.22047219 27.79698716 23 30.125 C22.52568351 33.2959177 22.52568351 33.2959177 22.625 36.6875 C22.61726563 37.82316406 22.60953125 38.95882812 22.6015625 40.12890625 C22.73304688 41.11761719 22.86453125 42.10632813 23 43.125 C24.43087002 44.89610565 24.43087002 44.89610565 26 46.125 C26 46.785 26 47.445 26 48.125 C27.485 48.62 27.485 48.62 29 49.125 C29.495 63.48 29.495 63.48 30 78.125 C26.33060165 77.39112033 24.25793693 76.94151169 21.1171875 75.34765625 C20.07884766 74.82461914 20.07884766 74.82461914 19.01953125 74.29101562 C18.31183594 73.92685547 17.60414063 73.56269531 16.875 73.1875 C15.80185547 72.64706055 15.80185547 72.64706055 14.70703125 72.09570312 C11.67232909 70.55566268 8.83883639 69.01755759 6 67.125 C5.8828125 63.96484375 5.8828125 63.96484375 6.125 60.0625 C6.26933134 55.33226571 6.19518393 51.29587319 4 47 C1.5738637 43.32613645 -1.3192064 41.13680653 -5.1328125 39 C-8.73038074 37.31411028 -11.8444791 36.86142342 -15.80859375 36.890625 C-18.83892012 37.21472408 -21.37204054 38.23318338 -24.140625 39.46875 C-26 40.125 -26 40.125 -30 40.125 C-34.24199114 36.13192765 -37.23697494 30.60996684 -39 25.125 C-39.46241121 22.19639569 -39.33785968 20.16573715 -39 17.125 C-36.9802876 13.16325645 -34.40352949 10.04793714 -30.89453125 7.28515625 C-21.62807234 1.6106443 -10.66150775 -0.21290261 0 0 Z " fill="#FBFCFD" transform="translate(113,89.875)"/>
<path d="M0 0 C4.75816792 2.16854556 8.17924917 5.49357054 12 9 C12.65355469 9.56460938 13.30710938 10.12921875 13.98046875 10.7109375 C22.31534856 18.33044838 28.46506544 29.15308637 32.359375 39.703125 C33.4077023 43.46176192 33.74903979 47.11011681 34 51 C30.52366466 49.64739803 27.15571734 48.16067862 23.796875 46.5390625 C22.81589844 46.06726563 21.83492187 45.59546875 20.82421875 45.109375 C19.80972656 44.61953125 18.79523438 44.1296875 17.75 43.625 C8.28702967 39.05835367 -1.11990487 34.59276187 -11 31 C-5.92307692 9.30769231 -5.92307692 9.30769231 0 0 Z " fill="#F8FBFD" transform="translate(171,63)"/>
<path d="M0 0 C11.52164009 3.07517084 11.52164009 3.07517084 17 5 C17 5.66 17 6.32 17 7 C14.48046875 8.7265625 14.48046875 8.7265625 11.1875 10.625 C10.10855469 11.25664062 9.02960938 11.88828125 7.91796875 12.5390625 C5 14 5 14 2 14 C1.65980848 12.60582227 1.32818221 11.20955342 1 9.8125 C0.814375 9.03519531 0.62875 8.25789062 0.4375 7.45703125 C-0.01422743 4.92009775 -0.07307143 2.57120097 0 0 Z " fill="#EEF4FA" transform="translate(156,186)"/>
<path d="M0 0 C8.19459684 2.56764034 15.81084438 5.20722958 23 10 C23 10.99 23 11.98 23 13 C15.28267891 10.47191206 7.64054098 7.74972528 0 5 C0 3.35 0 1.7 0 0 Z " fill="#428CC7" transform="translate(159,93)"/>
<path d="M0 0 C3.465 1.485 3.465 1.485 7 3 C7 3.66 7 4.32 7 5 C4.69 5 2.38 5 0 5 C0 3.35 0 1.7 0 0 Z " fill="#3182C2" transform="translate(159,93)"/>
<path d="M0 0 C1.65 0.33 3.3 0.66 5 1 C4.01 1.33 3.02 1.66 2 2 C2 2.66 2 3.32 2 4 C0.35 3.67 -1.3 3.34 -3 3 C-2.01 2.67 -1.02 2.34 0 2 C0 1.34 0 0.68 0 0 Z " fill="#5A9BCE" transform="translate(166,96)"/>
<path d="M0 0 C2.125 0.375 2.125 0.375 4 1 C4 1.99 4 2.98 4 4 C2.02 3.34 0.04 2.68 -2 2 C-1.34 1.34 -0.68 0.68 0 0 Z " fill="#4991C9" transform="translate(178,102)"/>
<path d="M0 0 C2.475 0.495 2.475 0.495 5 1 C4.67 1.99 4.34 2.98 4 4 C2.68 3.34 1.36 2.68 0 2 C0 1.34 0 0.68 0 0 Z " fill="#2E80C1" transform="translate(181,103)"/>
<path d="M0 0 C2.475 0.495 2.475 0.495 5 1 C4.67 1.66 4.34 2.32 4 3 C2.68 2.67 1.36 2.34 0 2 C0 1.34 0 0.68 0 0 Z " fill="#267CBF" transform="translate(174,100)"/>
<path d="M0 0 C1.32 0.33 2.64 0.66 4 1 C3.67 1.66 3.34 2.32 3 3 C2.01 3 1.02 3 0 3 C0 2.01 0 1.02 0 0 Z " fill="#3987C4" transform="translate(168,98)"/>
</svg>
